<svg width="24" height="24" viewBox="0 0 24 24" fill="none" xmlns="http://www.w3.org/2000/svg">
    <path
        d="M1.37316 13.183C1.13059 12.8362 1.00049 12.4232 1.00049 12C1.00049 11.5768 1.13059 11.1638 1.37316 10.817C2.94616 8.59 6.81916 4 12.0002 4C17.1812 4 21.0542 8.59 22.6272 10.817C22.8697 11.1638 22.9998 11.5768 22.9998 12C22.9998 12.4232 22.8697 12.8362 22.6272 13.183C21.0542 15.41 17.1812 20 12.0002 20C6.81916 20 2.94616 15.41 1.37316 13.183Z"
        stroke="#F6F6F6" stroke-width="2" stroke-linecap="round" stroke-linejoin="round" />
    <path
        d="M12 16C14.2091 16 16 14.2091 16 12C16 9.79086 14.2091 8 12 8C9.79086 8 8 9.79086 8 12C8 14.2091 9.79086 16 12 16Z"
        stroke="#F6F6F6" stroke-width="2" stroke-linecap="round" stroke-linejoin="round" />
</svg>
