<svg width="24" height="24" viewBox="0 0 24 24" fill="none" xmlns="http://www.w3.org/2000/svg">
    <path
        d="M12.0001 19.3334C16.0502 19.3334 19.3334 16.0502 19.3334 12.0001C19.3334 7.94999 16.0502 4.66675 12.0001 4.66675C7.94999 4.66675 4.66675 7.94999 4.66675 12.0001C4.66675 16.0502 7.94999 19.3334 12.0001 19.3334Z"
        stroke="#3197FF" stroke-opacity="0.6" stroke-linecap="round" stroke-linejoin="round" />
    <path
        d="M11.9999 16.6666C12.3681 16.6666 12.6666 16.3681 12.6666 15.9999C12.6666 15.6317 12.3681 15.3333 11.9999 15.3333C11.6317 15.3333 11.3333 15.6317 11.3333 15.9999C11.3333 16.3681 11.6317 16.6666 11.9999 16.6666Z"
        fill="#3197FF" fill-opacity="0.6" />
    <path
        d="M10.5686 8.37342C11.8886 7.79009 13.5966 7.85942 14.1799 8.80342C14.7633 9.74742 14.3606 10.8454 13.3606 11.6928C12.3606 12.5401 11.9999 13.0001 11.9999 13.6668"
        stroke="#3197FF" stroke-opacity="0.6" stroke-linecap="round" stroke-linejoin="round" />
</svg>
