<svg width="20" height="20" viewBox="0 0 20 20" fill="none" xmlns="http://www.w3.org/2000/svg">
    <path
        d="M4.20617 0.631874C3.40463 0.542956 2.59571 0.542956 1.79417 0.631874C1.50107 0.664672 1.22763 0.795493 1.01817 1.00313C0.808716 1.21077 0.675521 1.48307 0.640173 1.77587C0.545072 2.5891 0.545072 3.41065 0.640173 4.22387C0.710173 4.82987 1.19617 5.30087 1.79417 5.36787C2.58917 5.45787 3.41117 5.45787 4.20617 5.36787C4.49928 5.33508 4.77272 5.20426 4.98217 4.99661C5.19163 4.78897 5.32483 4.51668 5.36017 4.22387C5.45517 3.41087 5.45517 2.58887 5.36017 1.77587C5.32483 1.48307 5.19163 1.21077 4.98217 1.00313C4.77272 0.795493 4.49928 0.664672 4.20617 0.631874Z"
        fill="#373B53" />
    <path
        d="M11.2062 0.63188C10.4046 0.542954 9.59571 0.542954 8.79417 0.63188C8.50107 0.664678 8.22763 0.795499 8.01817 1.00314C7.80872 1.21078 7.67552 1.48307 7.64017 1.77588C7.54507 2.58911 7.54507 3.41065 7.64017 4.22388C7.71017 4.82988 8.19617 5.30088 8.79417 5.36788C9.58917 5.45788 10.4112 5.45788 11.2062 5.36788C11.4993 5.33508 11.7727 5.20426 11.9822 4.99662C12.1916 4.78898 12.3248 4.51669 12.3602 4.22388C12.4552 3.41088 12.4552 2.58888 12.3602 1.77588C12.3248 1.48307 12.1916 1.21078 11.9822 1.00314C11.7727 0.795499 11.4993 0.664678 11.2062 0.63188Z"
        fill="#373B53" />
    <path
        d="M18.2062 0.63188C17.4047 0.542954 16.5958 0.542954 15.7942 0.63188C15.5011 0.664678 15.2277 0.795499 15.0182 1.00314C14.8088 1.21078 14.6756 1.48307 14.6402 1.77588C14.5451 2.58911 14.5451 3.41066 14.6402 4.22388C14.7102 4.82988 15.1962 5.30088 15.7942 5.36788C16.5892 5.45788 17.4112 5.45788 18.2062 5.36788C18.4993 5.33508 18.7728 5.20426 18.9822 4.99662C19.1917 4.78898 19.3249 4.51669 19.3602 4.22388C19.4552 3.41088 19.4552 2.58888 19.3602 1.77588C19.3249 1.48307 19.1917 1.21078 18.9822 1.00314C18.7728 0.795499 18.4993 0.664678 18.2062 0.63188Z"
        fill="#373B53" />
    <path
        d="M4.20618 7.63187C3.40464 7.54296 2.59572 7.54296 1.79418 7.63187C1.50107 7.66467 1.22763 7.79549 1.01818 8.00313C0.808723 8.21077 0.675528 8.48307 0.64018 8.77587C0.54507 9.5891 0.54507 10.4106 0.64018 11.2239C0.71018 11.8299 1.19618 12.3009 1.79418 12.3679C2.58918 12.4579 3.41118 12.4579 4.20618 12.3679C4.49929 12.3351 4.77273 12.2043 4.98218 11.9966C5.19164 11.789 5.32483 11.5167 5.36018 11.2239C5.45518 10.4109 5.45518 9.58887 5.36018 8.77587C5.32483 8.48307 5.19164 8.21077 4.98218 8.00313C4.77273 7.79549 4.49929 7.66467 4.20618 7.63187Z"
        fill="#373B53" />
    <path
        d="M11.2062 7.63188C10.4046 7.54295 9.59572 7.54295 8.79418 7.63188C8.50107 7.66468 8.22763 7.7955 8.01818 8.00314C7.80872 8.21078 7.67553 8.48307 7.64018 8.77588C7.54507 9.58911 7.54507 10.4107 7.64018 11.2239C7.71018 11.8299 8.19618 12.3009 8.79418 12.3679C9.58918 12.4579 10.4112 12.4579 11.2062 12.3679C11.4993 12.3351 11.7727 12.2043 11.9822 11.9966C12.1916 11.789 12.3248 11.5167 12.3602 11.2239C12.4553 10.4107 12.4553 9.58911 12.3602 8.77588C12.3248 8.48307 12.1916 8.21078 11.9822 8.00314C11.7727 7.7955 11.4993 7.66468 11.2062 7.63188Z"
        fill="#373B53" />
    <path
        d="M18.2062 7.63188C17.4047 7.54295 16.5958 7.54295 15.7942 7.63188C15.5011 7.66468 15.2277 7.7955 15.0182 8.00314C14.8088 8.21078 14.6756 8.48307 14.6402 8.77588C14.5451 9.58911 14.5451 10.4107 14.6402 11.2239C14.7102 11.8299 15.1962 12.3009 15.7942 12.3679C16.5892 12.4579 17.4112 12.4579 18.2062 12.3679C18.4993 12.3351 18.7728 12.2043 18.9822 11.9966C19.1917 11.789 19.3249 11.5167 19.3602 11.2239C19.4553 10.4107 19.4553 9.58911 19.3602 8.77588C19.3249 8.48307 19.1917 8.21078 18.9822 8.00314C18.7728 7.7955 18.4993 7.66468 18.2062 7.63188Z"
        fill="#373B53" />
    <path
        d="M4.20618 14.6319C3.40464 14.5429 2.59572 14.5429 1.79418 14.6319C1.50107 14.6647 1.22763 14.7955 1.01818 15.0032C0.808723 15.2108 0.675528 15.4831 0.64018 15.7759C0.54507 16.5891 0.54507 17.4107 0.64018 18.2239C0.71018 18.8299 1.19618 19.3009 1.79418 19.3679C2.58918 19.4579 3.41118 19.4579 4.20618 19.3679C4.49929 19.3351 4.77273 19.2043 4.98218 18.9967C5.19164 18.789 5.32483 18.5167 5.36018 18.2239C5.45518 17.4109 5.45518 16.5889 5.36018 15.7759C5.32483 15.4831 5.19164 15.2108 4.98218 15.0032C4.77273 14.7955 4.49929 14.6647 4.20618 14.6319Z"
        fill="#373B53" />
    <path
        d="M11.2062 14.6319C10.4046 14.5429 9.59572 14.5429 8.79418 14.6319C8.50107 14.6647 8.22763 14.7955 8.01818 15.0032C7.80872 15.2108 7.67553 15.4831 7.64018 15.7759C7.54507 16.5891 7.54507 17.4107 7.64018 18.2239C7.71018 18.8299 8.19618 19.3009 8.79418 19.3679C9.58918 19.4579 10.4112 19.4579 11.2062 19.3679C11.4993 19.3351 11.7727 19.2043 11.9822 18.9967C12.1916 18.789 12.3248 18.5167 12.3602 18.2239C12.4553 17.4107 12.4553 16.5891 12.3602 15.7759C12.3248 15.4831 12.1916 15.2108 11.9822 15.0032C11.7727 14.7955 11.4993 14.6647 11.2062 14.6319Z"
        fill="#373B53" />
    <path
        d="M18.2062 14.6319C17.4047 14.5429 16.5958 14.5429 15.7942 14.6319C15.5011 14.6647 15.2277 14.7955 15.0182 15.0032C14.8088 15.2108 14.6756 15.4831 14.6402 15.7759C14.5451 16.5891 14.5451 17.4107 14.6402 18.2239C14.7102 18.8299 15.1962 19.3009 15.7942 19.3679C16.5892 19.4579 17.4112 19.4579 18.2062 19.3679C18.4993 19.3351 18.7728 19.2043 18.9822 18.9967C19.1917 18.789 19.3249 18.5167 19.3602 18.2239C19.4553 17.4107 19.4553 16.5891 19.3602 15.7759C19.3249 15.4831 19.1917 15.2108 18.9822 15.0032C18.7728 14.7955 18.4993 14.6647 18.2062 14.6319Z"
        fill="#373B53" />
</svg>
