<svg width="210" height="48" viewBox="0 0 210 48" fill="none" xmlns="http://www.w3.org/2000/svg">
    <path d="M23.5858 22.8041C23.5858 23.5272 22.974 24.139 22.2509 24.139C21.5278 24.139 20.916 23.5272 20.916 22.8041C20.916 22.0811 21.5278 21.4692 22.2509 21.4692C22.974 21.4692 23.5858 22.0811 23.5858 22.8041Z" fill="#091950"/>
    <path d="M23.5858 28.8667C23.5858 29.5898 22.974 30.2016 22.2509 30.2016C21.5278 30.2016 20.916 29.5898 20.916 28.8667C20.916 28.1437 21.5278 27.5318 22.2509 27.5318C22.974 27.4762 23.5858 28.088 23.5858 28.8667Z" fill="#091950"/>
    <path d="M23.5858 34.8735C23.5858 35.5965 22.974 36.2083 22.2509 36.2083C21.5278 36.2083 20.916 35.5965 20.916 34.8735C20.916 34.1504 21.5278 33.5386 22.2509 33.5386C22.974 33.5386 23.5858 34.0948 23.5858 34.8735Z" fill="#091950"/>
    <path d="M23.5858 40.8808C23.5858 41.6038 22.974 42.2157 22.2509 42.2157C21.5278 42.2157 20.916 41.6038 20.916 40.8808C20.916 40.1577 21.5278 39.5459 22.2509 39.5459C22.974 39.5459 23.5858 40.1577 23.5858 40.8808Z" fill="#091950"/>
    <path d="M22.807 0.556199C22.807 0.889919 22.5289 1.1124 22.2508 1.1124C21.9171 1.1124 21.6946 0.834299 21.6946 0.556199C21.6946 0.22248 21.9727 0 22.2508 0C22.5289 0 22.807 0.2781 22.807 0.556199Z" fill="#091950"/>
    <path d="M22.9184 6.11812C22.9184 6.50746 22.6403 6.78556 22.2509 6.78556C21.8616 6.78556 21.5835 6.50746 21.5835 6.11812C21.5835 5.72878 21.8616 5.45068 22.2509 5.45068C22.5847 5.45068 22.9184 5.72878 22.9184 6.11812Z" fill="#091950"/>
    <path d="M22.9184 11.6801C22.9184 12.0695 22.6403 12.3476 22.2509 12.3476C21.8616 12.3476 21.5835 12.0695 21.5835 11.6801C21.5835 11.2908 21.8616 11.0127 22.2509 11.0127C22.5847 11.0127 22.9184 11.3464 22.9184 11.6801Z" fill="#091950"/>
    <path d="M22.9184 17.2421C22.9184 17.6315 22.6403 17.9096 22.2509 17.9096C21.8616 17.9096 21.5835 17.6315 21.5835 17.2421C21.5835 16.8528 21.8616 16.5747 22.2509 16.5747C22.5847 16.5747 22.9184 16.9084 22.9184 17.2421Z" fill="#091950"/>
    <path d="M23.5858 25.8633C23.5858 26.5864 22.974 27.1982 22.2509 27.1982C21.5278 27.1982 20.916 26.5864 20.916 25.8633C20.916 25.1402 21.5278 24.5284 22.2509 24.5284C22.974 24.4728 23.5858 25.0846 23.5858 25.8633Z" fill="#091950"/>
    <path d="M23.5858 31.87C23.5858 32.5931 22.974 33.2049 22.2509 33.2049C21.5278 33.2049 20.916 32.5931 20.916 31.87C20.916 31.147 21.5278 30.5352 22.2509 30.5352C22.974 30.5352 23.5858 31.0914 23.5858 31.87Z" fill="#091950"/>
    <path d="M23.5858 37.8774C23.5858 38.6004 22.974 39.2122 22.2509 39.2122C21.5278 39.2122 20.916 38.6004 20.916 37.8774C20.916 37.1543 21.5278 36.5425 22.2509 36.5425C22.974 36.5425 23.5858 37.1543 23.5858 37.8774Z" fill="#091950"/>
    <path d="M23.5858 43.8842C23.5858 44.6073 22.974 45.2191 22.2509 45.2191C21.5278 45.2191 20.916 44.6073 20.916 43.8842C20.916 43.1611 21.5278 42.5493 22.2509 42.5493C22.974 42.5493 23.5858 43.1611 23.5858 43.8842Z" fill="#091950"/>
    <path d="M22.9184 3.33736C22.9184 3.7267 22.6403 4.0048 22.2509 4.0048C21.8616 4.0048 21.5835 3.7267 21.5835 3.33736C21.5835 2.94802 21.8616 2.66992 22.2509 2.66992C22.5847 2.66992 22.9184 2.94802 22.9184 3.33736Z" fill="#091950"/>
    <path d="M22.9184 8.89888C22.9184 9.28822 22.6403 9.56632 22.2509 9.56632C21.8616 9.56632 21.5835 9.28822 21.5835 8.89888C21.5835 8.50954 21.8616 8.23145 22.2509 8.23145C22.5847 8.23145 22.9184 8.56516 22.9184 8.89888Z" fill="#091950"/>
    <path d="M22.9184 14.4614C22.9184 14.8507 22.6403 15.1288 22.2509 15.1288C21.8616 15.1288 21.5835 14.8507 21.5835 14.4614C21.5835 14.072 21.8616 13.7939 22.2509 13.7939C22.5847 13.7939 22.9184 14.1277 22.9184 14.4614Z" fill="#091950"/>
    <path d="M22.9184 20.0229C22.9184 20.4122 22.6403 20.6903 22.2509 20.6903C21.8616 20.6903 21.5835 20.4122 21.5835 20.0229C21.5835 19.6336 21.8616 19.3555 22.2509 19.3555C22.5847 19.3555 22.9184 19.6892 22.9184 20.0229Z" fill="#091950"/>
    <path d="M26.0886 24.417C26.0886 25.0844 25.5324 25.6406 24.865 25.6406C24.1976 25.6406 23.6414 25.0844 23.6414 24.417C23.6414 23.7496 24.1976 23.1934 24.865 23.1934C25.5881 23.1934 26.0886 23.7496 26.0886 24.417Z" fill="#091950"/>
    <path d="M26.0886 30.4243C26.0886 31.0918 25.5324 31.648 24.865 31.648C24.1976 31.648 23.6414 31.0918 23.6414 30.4243C23.6414 29.7569 24.1976 29.2007 24.865 29.2007C25.5881 29.2007 26.0886 29.7569 26.0886 30.4243Z" fill="#091950"/>
    <path d="M26.0886 36.4312C26.0886 37.0986 25.5324 37.6548 24.865 37.6548C24.1976 37.6548 23.6414 37.0986 23.6414 36.4312C23.6414 35.7637 24.1976 35.2075 24.865 35.2075C25.5881 35.2075 26.0886 35.7637 26.0886 36.4312Z" fill="#091950"/>
    <path d="M25.4212 1.89116C25.4212 2.22488 25.1431 2.44736 24.865 2.44736C24.5313 2.44736 24.3088 2.16926 24.3088 1.89116C24.3088 1.55744 24.5869 1.33496 24.865 1.33496C25.1988 1.33496 25.4212 1.61306 25.4212 1.89116Z" fill="#091950"/>
    <path d="M25.5324 7.45308C25.5324 7.84242 25.2543 8.12052 24.8649 8.12052C24.4756 8.12052 24.1975 7.84242 24.1975 7.45308C24.1975 7.06374 24.4756 6.78564 24.8649 6.78564C25.2543 6.78564 25.5324 7.11936 25.5324 7.45308Z" fill="#091950"/>
    <path d="M25.5324 13.0708C25.5324 13.4601 25.2543 13.7382 24.8649 13.7382C24.4756 13.7382 24.1975 13.4601 24.1975 13.0708C24.1975 12.6814 24.4756 12.4033 24.8649 12.4033C25.2543 12.4033 25.5324 12.6814 25.5324 13.0708Z" fill="#091950"/>
    <path d="M25.5324 18.6328C25.5324 19.0221 25.2543 19.3002 24.8649 19.3002C24.4756 19.3002 24.1975 19.0221 24.1975 18.6328C24.1975 18.2434 24.4756 17.9653 24.8649 17.9653C25.2543 17.9653 25.5324 18.2434 25.5324 18.6328Z" fill="#091950"/>
    <path d="M26.0886 27.4204C26.0886 28.0879 25.5324 28.6441 24.865 28.6441C24.1976 28.6441 23.6414 28.0879 23.6414 27.4204C23.6414 26.753 24.1976 26.1968 24.865 26.1968C25.5881 26.1968 26.0886 26.753 26.0886 27.4204Z" fill="#091950"/>
    <path d="M26.0886 33.4277C26.0886 34.0952 25.5324 34.6514 24.865 34.6514C24.1976 34.6514 23.6414 34.0952 23.6414 33.4277C23.6414 32.7603 24.1976 32.2041 24.865 32.2041C25.5881 32.2041 26.0886 32.7603 26.0886 33.4277Z" fill="#091950"/>
    <path d="M26.0886 39.4346C26.0886 40.102 25.5324 40.6582 24.865 40.6582C24.1976 40.6582 23.6414 40.102 23.6414 39.4346C23.6414 38.7671 24.1976 38.2109 24.865 38.2109C25.5881 38.2109 26.0886 38.7671 26.0886 39.4346Z" fill="#091950"/>
    <path d="M25.4212 45.4415C25.4212 45.7752 25.1431 45.9977 24.865 45.9977C24.5313 45.9977 24.3088 45.7752 24.3088 45.4415C24.3088 45.1077 24.5869 44.8853 24.865 44.8853C25.1988 44.8853 25.4212 45.1634 25.4212 45.4415Z" fill="#091950"/>
    <path d="M25.5324 4.67183C25.5324 5.06117 25.2543 5.33927 24.8649 5.33927C24.4756 5.33927 24.1975 5.06117 24.1975 4.67183C24.1975 4.28249 24.4756 4.00439 24.8649 4.00439C25.2543 4.00439 25.5324 4.33811 25.5324 4.67183Z" fill="#091950"/>
    <path d="M25.5324 10.2338C25.5324 10.6232 25.2543 10.9013 24.8649 10.9013C24.4756 10.9013 24.1975 10.6232 24.1975 10.2338C24.1975 9.84451 24.4756 9.56641 24.8649 9.56641C25.2543 9.56641 25.5324 9.90013 25.5324 10.2338Z" fill="#091950"/>
    <path d="M25.5324 15.8515C25.5324 16.2409 25.2543 16.519 24.8649 16.519C24.4756 16.519 24.1975 16.2409 24.1975 15.8515C24.1975 15.4622 24.4756 15.1841 24.8649 15.1841C25.2543 15.1841 25.5324 15.4622 25.5324 15.8515Z" fill="#091950"/>
    <path d="M26.1998 21.4135C26.1998 22.1366 25.588 22.7484 24.8649 22.7484C24.1418 22.7484 23.53 22.1366 23.53 21.4135C23.53 20.6904 24.1418 20.0786 24.8649 20.0786C25.588 20.0786 26.1998 20.6348 26.1998 21.4135Z" fill="#091950"/>
    <path d="M20.8047 24.417C20.8047 25.0844 20.2485 25.6406 19.5811 25.6406C18.9136 25.6406 18.3574 25.0844 18.3574 24.417C18.3574 23.7496 18.9136 23.1934 19.5811 23.1934C20.2485 23.1934 20.8047 23.7496 20.8047 24.417Z" fill="#091950"/>
    <path d="M20.8047 30.4243C20.8047 31.0918 20.2485 31.648 19.5811 31.648C18.9136 31.648 18.3574 31.0918 18.3574 30.4243C18.3574 29.7569 18.9136 29.2007 19.5811 29.2007C20.2485 29.2007 20.8047 29.7569 20.8047 30.4243Z" fill="#091950"/>
    <path d="M20.8047 36.4312C20.8047 37.0986 20.2485 37.6548 19.5811 37.6548C18.9136 37.6548 18.3574 37.0986 18.3574 36.4312C18.3574 35.7637 18.9136 35.2075 19.5811 35.2075C20.2485 35.2075 20.8047 35.7637 20.8047 36.4312Z" fill="#091950"/>
    <path d="M20.2485 7.45308C20.2485 7.84242 19.9704 8.12052 19.581 8.12052C19.1917 8.12052 18.9136 7.84242 18.9136 7.45308C18.9136 7.06374 19.1917 6.78564 19.581 6.78564C19.9147 6.78564 20.2485 7.11936 20.2485 7.45308Z" fill="#091950"/>
    <path d="M20.2485 13.071C20.2485 13.4603 19.9704 13.7384 19.581 13.7384C19.1917 13.7384 18.9136 13.4603 18.9136 13.071C18.9136 12.6816 19.1917 12.4035 19.581 12.4035C19.9147 12.3479 20.2485 12.6816 20.2485 13.071Z" fill="#091950"/>
    <path d="M20.2485 18.6328C20.2485 19.0221 19.9704 19.3002 19.581 19.3002C19.1917 19.3002 18.9136 19.0221 18.9136 18.6328C18.9136 18.2434 19.1917 17.9653 19.581 17.9653C19.9147 17.9653 20.2485 18.2434 20.2485 18.6328Z" fill="#091950"/>
    <path d="M20.8047 27.4204C20.8047 28.0879 20.2485 28.6441 19.5811 28.6441C18.9136 28.6441 18.3574 28.0879 18.3574 27.4204C18.3574 26.753 18.9136 26.1968 19.5811 26.1968C20.2485 26.1968 20.8047 26.753 20.8047 27.4204Z" fill="#091950"/>
    <path d="M20.8047 33.4277C20.8047 34.0952 20.2485 34.6514 19.5811 34.6514C18.9136 34.6514 18.3574 34.0952 18.3574 33.4277C18.3574 32.7603 18.9136 32.2041 19.5811 32.2041C20.2485 32.2041 20.8047 32.7603 20.8047 33.4277Z" fill="#091950"/>
    <path d="M20.8047 39.4346C20.8047 40.102 20.2485 40.6582 19.5811 40.6582C18.9136 40.6582 18.3574 40.102 18.3574 39.4346C18.3574 38.7671 18.9136 38.2109 19.5811 38.2109C20.2485 38.2109 20.8047 38.7671 20.8047 39.4346Z" fill="#091950"/>
    <path d="M20.1373 45.4415C20.1373 45.7752 19.8592 45.9977 19.5811 45.9977C19.2474 45.9977 19.0249 45.7752 19.0249 45.4415C19.0249 45.1077 19.303 44.8853 19.5811 44.8853C19.8592 44.8853 20.1373 45.1634 20.1373 45.4415Z" fill="#091950"/>
    <path d="M20.2485 4.67183C20.2485 5.06117 19.9704 5.33927 19.581 5.33927C19.1917 5.33927 18.9136 5.06117 18.9136 4.67183C18.9136 4.28249 19.1917 4.00439 19.581 4.00439C19.9147 4.00439 20.2485 4.33811 20.2485 4.67183Z" fill="#091950"/>
    <path d="M20.2485 10.2338C20.2485 10.6232 19.9704 10.9013 19.581 10.9013C19.1917 10.9013 18.9136 10.6232 18.9136 10.2338C18.9136 9.84451 19.1917 9.56641 19.581 9.56641C19.9147 9.56641 20.2485 9.90013 20.2485 10.2338Z" fill="#091950"/>
    <path d="M20.2485 15.8513C20.2485 16.2406 19.9704 16.5187 19.581 16.5187C19.1917 16.5187 18.9136 16.2406 18.9136 15.8513C18.9136 15.4619 19.1917 15.1838 19.581 15.1838C19.9147 15.1282 20.2485 15.4619 20.2485 15.8513Z" fill="#091950"/>
    <path d="M20.9159 21.4136C20.9159 22.1366 20.304 22.7485 19.581 22.7485C18.8579 22.7485 18.2461 22.1366 18.2461 21.4136C18.2461 20.6905 18.8579 20.0787 19.581 20.0787C20.304 20.0231 20.9159 20.6349 20.9159 21.4136Z" fill="#091950"/>
    <path d="M28.6472 25.9745C28.6472 26.5864 28.1466 27.0869 27.5348 27.0869C26.9229 27.0869 26.4224 26.5864 26.4224 25.9745C26.4224 25.3627 26.9229 24.8621 27.5348 24.8621C28.1466 24.8065 28.6472 25.3071 28.6472 25.9745Z" fill="#091950"/>
    <path d="M28.6472 31.9815C28.6472 32.5934 28.1466 33.0939 27.5348 33.0939C26.9229 33.0939 26.4224 32.5934 26.4224 31.9815C26.4224 31.3697 26.9229 30.8691 27.5348 30.8691C28.1466 30.8691 28.6472 31.3697 28.6472 31.9815Z" fill="#091950"/>
    <path d="M28.6472 37.9884C28.6472 38.6002 28.1466 39.1008 27.5348 39.1008C26.9229 39.1008 26.4224 38.6002 26.4224 37.9884C26.4224 37.3766 26.9229 36.876 27.5348 36.876C28.1466 36.876 28.6472 37.3766 28.6472 37.9884Z" fill="#091950"/>
    <path d="M28.0909 43.9957C28.0909 44.3294 27.8128 44.5519 27.5347 44.5519C27.201 44.5519 26.9785 44.2738 26.9785 43.9957C26.9785 43.6619 27.2566 43.4395 27.5347 43.4395C27.8684 43.4395 28.0909 43.6619 28.0909 43.9957Z" fill="#091950"/>
    <path d="M28.0909 3.22612C28.0909 3.55984 27.8128 3.78232 27.5347 3.78232C27.201 3.78232 26.9785 3.50422 26.9785 3.22612C26.9785 2.8924 27.2566 2.66992 27.5347 2.66992C27.8684 2.66992 28.0909 2.94802 28.0909 3.22612Z" fill="#091950"/>
    <path d="M28.2021 8.78756C28.2021 9.1769 27.924 9.455 27.5346 9.455C27.1453 9.455 26.8672 9.1769 26.8672 8.78756C26.8672 8.39822 27.1453 8.12012 27.5346 8.12012C27.924 8.12012 28.2021 8.45384 28.2021 8.78756Z" fill="#091950"/>
    <path d="M28.2021 14.3501C28.2021 14.7394 27.924 15.0175 27.5346 15.0175C27.1453 15.0175 26.8672 14.7394 26.8672 14.3501C26.8672 13.9607 27.1453 13.6826 27.5346 13.6826C27.924 13.6826 28.2021 14.0163 28.2021 14.3501Z" fill="#091950"/>
    <path d="M28.8697 19.912C28.8697 20.6351 28.2579 21.2469 27.5348 21.2469C26.8118 21.2469 26.2 20.6351 26.2 19.912C26.2 19.189 26.8118 18.5771 27.5348 18.5771C28.3135 18.5771 28.8697 19.189 28.8697 19.912Z" fill="#091950"/>
    <path d="M28.6472 28.9781C28.6472 29.5899 28.1466 30.0905 27.5348 30.0905C26.9229 30.0905 26.4224 29.5899 26.4224 28.9781C26.4224 28.3662 26.9229 27.8657 27.5348 27.8657C28.1466 27.81 28.6472 28.3662 28.6472 28.9781Z" fill="#091950"/>
    <path d="M28.6472 34.985C28.6472 35.5968 28.1466 36.0974 27.5348 36.0974C26.9229 36.0974 26.4224 35.5968 26.4224 34.985C26.4224 34.3731 26.9229 33.8726 27.5348 33.8726C28.1466 33.8726 28.6472 34.3731 28.6472 34.985Z" fill="#091950"/>
    <path d="M28.2021 40.9921C28.2021 41.3815 27.924 41.6596 27.5346 41.6596C27.1453 41.6596 26.8672 41.3815 26.8672 40.9921C26.8672 40.6028 27.1453 40.3247 27.5346 40.3247C27.924 40.3247 28.2021 40.6028 28.2021 40.9921Z" fill="#091950"/>
    <path d="M28.2021 6.00679C28.2021 6.39613 27.924 6.67423 27.5346 6.67423C27.1453 6.67423 26.8672 6.39613 26.8672 6.00679C26.8672 5.61745 27.1453 5.33936 27.5346 5.33936C27.924 5.33936 28.2021 5.61745 28.2021 6.00679Z" fill="#091950"/>
    <path d="M28.2021 11.5688C28.2021 11.9581 27.924 12.2362 27.5346 12.2362C27.1453 12.2362 26.8672 11.9581 26.8672 11.5688C26.8672 11.1795 27.1453 10.9014 27.5346 10.9014C27.924 10.9014 28.2021 11.2351 28.2021 11.5688Z" fill="#091950"/>
    <path d="M28.2021 17.1308C28.2021 17.5202 27.924 17.7983 27.5346 17.7983C27.1453 17.7983 26.8672 17.5202 26.8672 17.1308C26.8672 16.7415 27.1453 16.4634 27.5346 16.4634C27.924 16.4634 28.2021 16.7971 28.2021 17.1308Z" fill="#091950"/>
    <path d="M28.7583 22.9155C28.7583 23.583 28.2021 24.1392 27.5347 24.1392C26.8672 24.1392 26.311 23.583 26.311 22.9155C26.311 22.2481 26.8672 21.6919 27.5347 21.6919C28.2021 21.6919 28.7583 22.2481 28.7583 22.9155Z" fill="#091950"/>
    <path d="M18.0236 25.9745C18.0236 26.5864 17.523 27.0869 16.9112 27.0869C16.2994 27.0869 15.7988 26.5864 15.7988 25.9745C15.7988 25.3627 16.2994 24.8621 16.9112 24.8621C17.523 24.8065 18.0236 25.3071 18.0236 25.9745Z" fill="#091950"/>
    <path d="M18.0236 31.9815C18.0236 32.5934 17.523 33.0939 16.9112 33.0939C16.2994 33.0939 15.7988 32.5934 15.7988 31.9815C15.7988 31.3697 16.2994 30.8691 16.9112 30.8691C17.523 30.8691 18.0236 31.3697 18.0236 31.9815Z" fill="#091950"/>
    <path d="M18.0236 37.9884C18.0236 38.6002 17.523 39.1008 16.9112 39.1008C16.2994 39.1008 15.7988 38.6002 15.7988 37.9884C15.7988 37.3766 16.2994 36.876 16.9112 36.876C17.523 36.876 18.0236 37.3766 18.0236 37.9884Z" fill="#091950"/>
    <path d="M17.4674 43.9957C17.4674 44.3294 17.1893 44.5519 16.9112 44.5519C16.5775 44.5519 16.355 44.2738 16.355 43.9957C16.355 43.6619 16.6331 43.4395 16.9112 43.4395C17.1893 43.4395 17.4674 43.6619 17.4674 43.9957Z" fill="#091950"/>
    <path d="M17.4674 3.22612C17.4674 3.55984 17.1893 3.78232 16.9112 3.78232C16.5775 3.78232 16.355 3.50422 16.355 3.22612C16.355 2.8924 16.6331 2.66992 16.9112 2.66992C17.1893 2.66992 17.4674 2.94802 17.4674 3.22612Z" fill="#091950"/>
    <path d="M20.1373 1.89116C20.1373 2.22488 19.8592 2.44736 19.5811 2.44736C19.303 2.44736 19.0249 2.16926 19.0249 1.89116C19.0249 1.55744 19.303 1.33496 19.5811 1.33496C19.8592 1.33496 20.1373 1.61306 20.1373 1.89116Z" fill="#091950"/>
    <path d="M17.5788 8.78756C17.5788 9.1769 17.3007 9.455 16.9113 9.455C16.522 9.455 16.2439 9.1769 16.2439 8.78756C16.2439 8.39822 16.522 8.12012 16.9113 8.12012C17.2451 8.12012 17.5788 8.45384 17.5788 8.78756Z" fill="#091950"/>
    <path d="M17.5788 14.3501C17.5788 14.7394 17.3007 15.0175 16.9113 15.0175C16.522 15.0175 16.2439 14.7394 16.2439 14.3501C16.2439 13.9607 16.522 13.6826 16.9113 13.6826C17.2451 13.6826 17.5788 14.0163 17.5788 14.3501Z" fill="#091950"/>
    <path d="M18.2462 19.912C18.2462 20.6351 17.6344 21.2469 16.9113 21.2469C16.1882 21.2469 15.5764 20.6907 15.5764 19.912C15.5764 19.189 16.1882 18.5771 16.9113 18.5771C17.6344 18.5771 18.2462 19.189 18.2462 19.912Z" fill="#091950"/>
    <path d="M18.0236 28.9781C18.0236 29.5899 17.523 30.0905 16.9112 30.0905C16.2994 30.0905 15.7988 29.5899 15.7988 28.9781C15.7988 28.3662 16.2994 27.8657 16.9112 27.8657C17.523 27.81 18.0236 28.3662 18.0236 28.9781Z" fill="#091950"/>
    <path d="M18.0236 34.985C18.0236 35.5968 17.523 36.0974 16.9112 36.0974C16.2994 36.0974 15.7988 35.5968 15.7988 34.985C15.7988 34.3731 16.2994 33.8726 16.9112 33.8726C17.523 33.8726 18.0236 34.3731 18.0236 34.985Z" fill="#091950"/>
    <path d="M17.5788 40.9921C17.5788 41.3815 17.3007 41.6596 16.9113 41.6596C16.522 41.6596 16.2439 41.3815 16.2439 40.9921C16.2439 40.6028 16.522 40.3247 16.9113 40.3247C17.2451 40.3247 17.5788 40.6028 17.5788 40.9921Z" fill="#091950"/>
    <path d="M17.5788 6.00679C17.5788 6.39613 17.3007 6.67423 16.9113 6.67423C16.522 6.67423 16.2439 6.39613 16.2439 6.00679C16.2439 5.61745 16.522 5.33936 16.9113 5.33936C17.2451 5.33936 17.5788 5.61745 17.5788 6.00679Z" fill="#091950"/>
    <path d="M17.5788 11.5688C17.5788 11.9581 17.3007 12.2362 16.9113 12.2362C16.522 12.2362 16.2439 11.9581 16.2439 11.5688C16.2439 11.1795 16.522 10.9014 16.9113 10.9014C17.2451 10.9014 17.5788 11.2351 17.5788 11.5688Z" fill="#091950"/>
    <path d="M17.5788 17.1308C17.5788 17.5202 17.3007 17.7983 16.9113 17.7983C16.522 17.7983 16.2439 17.5202 16.2439 17.1308C16.2439 16.7415 16.522 16.4634 16.9113 16.4634C17.2451 16.4634 17.5788 16.7971 17.5788 17.1308Z" fill="#091950"/>
    <path d="M18.135 22.9155C18.135 23.583 17.5788 24.1392 16.9114 24.1392C16.2439 24.1392 15.6877 23.583 15.6877 22.9155C15.6877 22.2481 16.2439 21.6919 16.9114 21.6919C17.5788 21.6919 18.135 22.2481 18.135 22.9155Z" fill="#091950"/>
    <path d="M15.3539 24.5844C15.3539 25.1962 14.8534 25.6968 14.2415 25.6968C13.6297 25.6968 13.1292 25.1962 13.1292 24.5844C13.1292 23.9726 13.6297 23.472 14.2415 23.472C14.8534 23.4164 15.3539 23.917 15.3539 24.5844Z" fill="#091950"/>
    <path d="M15.3539 27.5873C15.3539 28.1991 14.8534 28.6997 14.2415 28.6997C13.6297 28.6997 13.1292 28.1991 13.1292 27.5873C13.1292 26.9755 13.6297 26.4749 14.2415 26.4749C14.8534 26.4193 15.3539 26.9199 15.3539 27.5873Z" fill="#091950"/>
    <path d="M15.2428 30.591C15.2428 31.1472 14.7978 31.5922 14.2416 31.5922C13.6854 31.5922 13.2405 31.1472 13.2405 30.591C13.2405 30.0348 13.6854 29.5898 14.2416 29.5898C14.7978 29.5898 15.2428 30.0348 15.2428 30.591Z" fill="#091950"/>
    <path d="M14.9091 36.5981C14.9091 36.9874 14.631 37.2655 14.2417 37.2655C13.8523 37.2655 13.5742 36.9874 13.5742 36.5981C13.5742 36.2088 13.8523 35.9307 14.2417 35.9307C14.631 35.9307 14.9091 36.2088 14.9091 36.5981Z" fill="#091950"/>
    <path d="M14.7977 42.605C14.7977 42.9387 14.5196 43.1612 14.2415 43.1612C13.9078 43.1612 13.6853 42.8831 13.6853 42.605C13.6853 42.2713 13.9634 42.0488 14.2415 42.0488C14.5196 42.0488 14.7977 42.2713 14.7977 42.605Z" fill="#091950"/>
    <path d="M14.9091 7.39742C14.9091 7.78676 14.631 8.06486 14.2417 8.06486C13.8523 8.06486 13.5742 7.78676 13.5742 7.39742C13.5742 7.00808 13.8523 6.72998 14.2417 6.72998C14.631 6.72998 14.9091 7.0637 14.9091 7.39742Z" fill="#091950"/>
    <path d="M14.9091 12.9594C14.9091 13.3488 14.631 13.6269 14.2417 13.6269C13.8523 13.6269 13.5742 13.3488 13.5742 12.9594C13.5742 12.5701 13.8523 12.292 14.2417 12.292C14.631 12.292 14.9091 12.6257 14.9091 12.9594Z" fill="#091950"/>
    <path d="M15.5765 18.5214C15.5765 19.2445 14.9647 19.8563 14.2416 19.8563C13.5186 19.8563 12.9067 19.2445 12.9067 18.5214C12.9067 17.7983 13.5186 17.1865 14.2416 17.1865C14.9647 17.1865 15.5765 17.7983 15.5765 18.5214Z" fill="#091950"/>
    <path d="M15.2428 33.5944C15.2428 34.1506 14.7978 34.5956 14.2416 34.5956C13.6854 34.5956 13.2405 34.1506 13.2405 33.5944C13.2405 33.0382 13.6854 32.5933 14.2416 32.5933C14.7978 32.5933 15.2428 33.0382 15.2428 33.5944Z" fill="#091950"/>
    <path d="M14.9091 39.6015C14.9091 39.9909 14.631 40.269 14.2417 40.269C13.8523 40.269 13.5742 39.9909 13.5742 39.6015C13.5742 39.2122 13.8523 38.9341 14.2417 38.9341C14.631 38.9341 14.9091 39.2122 14.9091 39.6015Z" fill="#091950"/>
    <path d="M14.7977 4.61626C14.7977 4.94998 14.5196 5.17246 14.2415 5.17246C13.9078 5.17246 13.6853 4.89436 13.6853 4.61626C13.6853 4.28254 13.9634 4.06006 14.2415 4.06006C14.5196 4.06006 14.7977 4.33816 14.7977 4.61626Z" fill="#091950"/>
    <path d="M14.9091 10.1782C14.9091 10.5675 14.631 10.8456 14.2417 10.8456C13.8523 10.8456 13.5742 10.5675 13.5742 10.1782C13.5742 9.78884 13.8523 9.51074 14.2417 9.51074C14.631 9.51074 14.9091 9.84446 14.9091 10.1782Z" fill="#091950"/>
    <path d="M14.9091 15.7402C14.9091 16.1295 14.631 16.4076 14.2417 16.4076C13.8523 16.4076 13.5742 16.1295 13.5742 15.7402C13.5742 15.3509 13.8523 15.0728 14.2417 15.0728C14.631 15.0728 14.9091 15.4065 14.9091 15.7402Z" fill="#091950"/>
    <path d="M15.4653 21.5249C15.4653 22.1923 14.9091 22.7485 14.2417 22.7485C13.5743 22.7485 13.0181 22.1923 13.0181 21.5249C13.0181 20.8575 13.5743 20.3013 14.2417 20.3013C14.9091 20.3013 15.4653 20.8575 15.4653 21.5249Z" fill="#091950"/>
    <path d="M31.3168 24.5844C31.3168 25.1962 30.8163 25.6968 30.2044 25.6968C29.5926 25.6968 29.092 25.1962 29.092 24.5844C29.092 23.9726 29.5926 23.472 30.2044 23.472C30.8163 23.4164 31.3168 23.917 31.3168 24.5844Z" fill="#091950"/>
    <path d="M31.3168 27.5873C31.3168 28.1991 30.8163 28.6997 30.2044 28.6997C29.5926 28.6997 29.092 28.1991 29.092 27.5873C29.092 26.9755 29.5926 26.4749 30.2044 26.4749C30.8163 26.4193 31.3168 26.9199 31.3168 27.5873Z" fill="#091950"/>
    <path d="M31.2057 30.591C31.2057 31.1472 30.7607 31.5922 30.2045 31.5922C29.6483 31.5922 29.2034 31.1472 29.2034 30.591C29.2034 30.0348 29.6483 29.5898 30.2045 29.5898C30.7607 29.5898 31.2057 30.0348 31.2057 30.591Z" fill="#091950"/>
    <path d="M30.872 36.5981C30.872 36.9874 30.5939 37.2655 30.2045 37.2655C29.8152 37.2655 29.5371 36.9874 29.5371 36.5981C29.5371 36.2088 29.8152 35.9307 30.2045 35.9307C30.5939 35.9307 30.872 36.2088 30.872 36.5981Z" fill="#091950"/>
    <path d="M30.7608 42.605C30.7608 42.9387 30.4827 43.1612 30.2046 43.1612C29.8709 43.1612 29.6484 42.8831 29.6484 42.605C29.6484 42.2713 29.9265 42.0488 30.2046 42.0488C30.5384 42.0488 30.7608 42.2713 30.7608 42.605Z" fill="#091950"/>
    <path d="M30.872 7.39742C30.872 7.78676 30.5939 8.06486 30.2045 8.06486C29.8152 8.06486 29.5371 7.78676 29.5371 7.39742C29.5371 7.00808 29.8152 6.72998 30.2045 6.72998C30.5939 6.72998 30.872 7.0637 30.872 7.39742Z" fill="#091950"/>
    <path d="M30.872 12.9594C30.872 13.3488 30.5939 13.6269 30.2045 13.6269C29.8152 13.6269 29.5371 13.3488 29.5371 12.9594C29.5371 12.5701 29.8152 12.292 30.2045 12.292C30.5939 12.292 30.872 12.6257 30.872 12.9594Z" fill="#091950"/>
    <path d="M31.5394 18.5214C31.5394 19.2445 30.9276 19.8563 30.2045 19.8563C29.4814 19.8563 28.8696 19.2445 28.8696 18.5214C28.8696 17.7983 29.4814 17.1865 30.2045 17.1865C30.9276 17.1865 31.5394 17.7983 31.5394 18.5214Z" fill="#091950"/>
    <path d="M31.2057 33.5944C31.2057 34.1506 30.7607 34.5956 30.2045 34.5956C29.6483 34.5956 29.2034 34.1506 29.2034 33.5944C29.2034 33.0382 29.6483 32.5933 30.2045 32.5933C30.7607 32.5933 31.2057 33.0382 31.2057 33.5944Z" fill="#091950"/>
    <path d="M30.872 39.6015C30.872 39.9909 30.5939 40.269 30.2045 40.269C29.8152 40.269 29.5371 39.9909 29.5371 39.6015C29.5371 39.2122 29.8152 38.9341 30.2045 38.9341C30.5939 38.9341 30.872 39.2122 30.872 39.6015Z" fill="#091950"/>
    <path d="M30.7608 4.61626C30.7608 4.94998 30.4827 5.17246 30.2046 5.17246C29.8709 5.17246 29.6484 4.89436 29.6484 4.61626C29.6484 4.28254 29.9265 4.06006 30.2046 4.06006C30.5384 4.06006 30.7608 4.33816 30.7608 4.61626Z" fill="#091950"/>
    <path d="M30.872 10.1782C30.872 10.5675 30.5939 10.8456 30.2045 10.8456C29.8152 10.8456 29.5371 10.5675 29.5371 10.1782C29.5371 9.78884 29.8152 9.51074 30.2045 9.51074C30.5939 9.51074 30.872 9.84446 30.872 10.1782Z" fill="#091950"/>
    <path d="M30.872 15.7402C30.872 16.1295 30.5939 16.4076 30.2045 16.4076C29.8152 16.4076 29.5371 16.1295 29.5371 15.7402C29.5371 15.3509 29.8152 15.0728 30.2045 15.0728C30.5939 15.0728 30.872 15.4065 30.872 15.7402Z" fill="#091950"/>
    <path d="M31.4282 21.5249C31.4282 22.1923 30.872 22.7485 30.2046 22.7485C29.5372 22.7485 28.981 22.1923 28.981 21.5249C28.981 20.8575 29.5372 20.3013 30.2046 20.3013C30.872 20.3013 31.4282 20.8575 31.4282 21.5249Z" fill="#091950"/>
    <path d="M33.8754 26.1418C33.8754 26.698 33.4304 27.1429 32.8742 27.1429C32.318 27.1429 31.873 26.698 31.873 26.1418C31.873 25.5856 32.318 25.1406 32.8742 25.1406C33.4304 25.1406 33.8754 25.5856 33.8754 26.1418Z" fill="#091950"/>
    <path d="M33.8754 29.1447C33.8754 29.7009 33.4304 30.1459 32.8742 30.1459C32.318 30.1459 31.873 29.7009 31.873 29.1447C31.873 28.5885 32.318 28.1436 32.8742 28.1436C33.4304 28.1436 33.8754 28.5885 33.8754 29.1447Z" fill="#091950"/>
    <path d="M33.5417 32.1484C33.5417 32.5377 33.2636 32.8158 32.8742 32.8158C32.4849 32.8158 32.2068 32.5377 32.2068 32.1484C32.2068 31.7591 32.4849 31.481 32.8742 31.481C33.2636 31.481 33.5417 31.8147 33.5417 32.1484Z" fill="#091950"/>
    <path d="M33.5417 38.2109C33.5417 38.6002 33.2636 38.8783 32.8742 38.8783C32.4849 38.8783 32.2068 38.6002 32.2068 38.2109C32.2068 37.8216 32.4849 37.5435 32.8742 37.5435C33.2636 37.5435 33.5417 37.8216 33.5417 38.2109Z" fill="#091950"/>
    <path d="M33.5417 8.78756C33.5417 9.1769 33.2636 9.455 32.8742 9.455C32.4849 9.455 32.2068 9.1769 32.2068 8.78756C32.2068 8.39822 32.4849 8.12012 32.8742 8.12012C33.2636 8.12012 33.5417 8.39822 33.5417 8.78756Z" fill="#091950"/>
    <path d="M33.5417 14.3501C33.5417 14.7394 33.2636 15.0175 32.8742 15.0175C32.4849 15.0175 32.2068 14.7394 32.2068 14.3501C32.2068 13.9607 32.4849 13.6826 32.8742 13.6826C33.2636 13.6826 33.5417 13.9607 33.5417 14.3501Z" fill="#091950"/>
    <path d="M34.0979 20.1343C34.0979 20.8017 33.5417 21.3579 32.8743 21.3579C32.2068 21.3579 31.6506 20.8017 31.6506 20.1343C31.6506 19.4668 32.2068 18.9106 32.8743 18.9106C33.5417 18.9106 34.0979 19.4668 34.0979 20.1343Z" fill="#091950"/>
    <path d="M43.8314 11.5135C43.8314 12.014 43.442 12.4034 42.9414 12.4034C42.4409 12.4034 42.0515 12.014 42.0515 11.5135C42.0515 11.0129 42.4409 10.6235 42.9414 10.6235C43.442 10.6235 43.8314 11.0129 43.8314 11.5135Z" fill="#091950"/>
    <path d="M2.33892 11.5135C2.33892 12.014 1.94958 12.4034 1.449 12.4034C0.948422 12.4034 0.559082 12.014 0.559082 11.5135C0.559082 11.0129 0.948422 10.6235 1.449 10.6235C1.94958 10.6235 2.33892 11.0129 2.33892 11.5135Z" fill="#091950"/>
    <path d="M33.5417 35.1518C33.5417 35.5412 33.2636 35.8193 32.8742 35.8193C32.4849 35.8193 32.2068 35.5412 32.2068 35.1518C32.2068 34.7625 32.4849 34.4844 32.8742 34.4844C33.2636 34.4844 33.5417 34.8181 33.5417 35.1518Z" fill="#091950"/>
    <path d="M33.4305 41.2144C33.4305 41.5481 33.1524 41.7706 32.8743 41.7706C32.5406 41.7706 32.3181 41.4925 32.3181 41.2144C32.3181 40.8807 32.5962 40.6582 32.8743 40.6582C33.1524 40.6582 33.4305 40.8807 33.4305 41.2144Z" fill="#091950"/>
    <path d="M38.7701 38.2662C38.7701 38.5999 38.492 38.8224 38.2139 38.8224C37.8802 38.8224 37.6577 38.5443 37.6577 38.2662C37.6577 37.9324 37.9358 37.71 38.2139 37.71C38.492 37.71 38.7701 37.9881 38.7701 38.2662Z" fill="#091950"/>
    <path d="M33.4305 6.00688C33.4305 6.3406 33.1524 6.56308 32.8743 6.56308C32.5406 6.56308 32.3181 6.3406 32.3181 6.00688C32.3181 5.67316 32.5962 5.45068 32.8743 5.45068C33.1524 5.45068 33.4305 5.67316 33.4305 6.00688Z" fill="#091950"/>
    <path d="M33.5417 11.5688C33.5417 11.9581 33.2636 12.2362 32.8742 12.2362C32.4849 12.2362 32.2068 11.9581 32.2068 11.5688C32.2068 11.1795 32.4849 10.9014 32.8742 10.9014C33.2636 10.9014 33.5417 11.1795 33.5417 11.5688Z" fill="#091950"/>
    <path d="M34.2091 17.1308C34.2091 17.8538 33.5972 18.4657 32.8742 18.4657C32.1511 18.4657 31.5393 17.8538 31.5393 17.1308C31.5393 16.4077 32.1511 15.7959 32.8742 15.7959C33.5972 15.7959 34.2091 16.4077 34.2091 17.1308Z" fill="#091950"/>
    <path d="M33.9868 23.1378C33.9868 23.7496 33.4862 24.2502 32.8744 24.2502C32.2625 24.2502 31.762 23.7496 31.762 23.1378C31.762 22.526 32.2625 22.0254 32.8744 22.0254C33.4862 22.0254 33.9868 22.526 33.9868 23.1378Z" fill="#091950"/>
    <path d="M36.5453 24.7512C36.5453 25.3074 36.1003 25.7523 35.5441 25.7523C34.9879 25.7523 34.543 25.3074 34.543 24.7512C34.543 24.195 34.9879 23.75 35.5441 23.75C36.1003 23.75 36.5453 24.195 36.5453 24.7512Z" fill="#091950"/>
    <path d="M36.2113 30.7578C36.2113 31.1471 35.9332 31.4252 35.5439 31.4252C35.1546 31.4252 34.8765 31.1471 34.8765 30.7578C34.8765 30.3684 35.1546 30.0903 35.5439 30.0903C35.8776 30.0903 36.2113 30.4241 36.2113 30.7578Z" fill="#091950"/>
    <path d="M36.2113 36.8205C36.2113 37.2098 35.9332 37.4879 35.5439 37.4879C35.1546 37.4879 34.8765 37.2098 34.8765 36.8205C34.8765 36.4312 35.1546 36.1531 35.5439 36.1531C35.8776 36.0974 36.2113 36.4312 36.2113 36.8205Z" fill="#091950"/>
    <path d="M36.1002 7.39751C36.1002 7.73123 35.8221 7.95371 35.544 7.95371C35.2103 7.95371 34.9878 7.67561 34.9878 7.39751C34.9878 7.06379 35.2659 6.84131 35.544 6.84131C35.8221 6.84131 36.1002 7.06379 36.1002 7.39751Z" fill="#091950"/>
    <path d="M36.2113 12.9594C36.2113 13.3488 35.9332 13.6269 35.5439 13.6269C35.1546 13.6269 34.8765 13.3488 34.8765 12.9594C34.8765 12.5701 35.1546 12.292 35.5439 12.292C35.8776 12.292 36.2113 12.5701 36.2113 12.9594Z" fill="#091950"/>
    <path d="M36.7676 18.7441C36.7676 19.4116 36.2114 19.9678 35.544 19.9678C34.8765 19.9678 34.3203 19.4116 34.3203 18.7441C34.3203 18.0767 34.8765 17.5205 35.544 17.5205C36.2114 17.5205 36.7676 18.0767 36.7676 18.7441Z" fill="#091950"/>
    <path d="M36.2113 27.7544C36.2113 28.1437 35.9332 28.4218 35.5439 28.4218C35.1546 28.4218 34.8765 28.1437 34.8765 27.7544C34.8765 27.365 35.1546 27.0869 35.5439 27.0869C35.8776 27.0869 36.2113 27.4206 36.2113 27.7544Z" fill="#091950"/>
    <path d="M36.2113 33.7612C36.2113 34.1505 35.9332 34.4286 35.5439 34.4286C35.1546 34.4286 34.8765 34.1505 34.8765 33.7612C34.8765 33.3719 35.1546 33.0938 35.5439 33.0938C35.8776 33.0938 36.2113 33.4275 36.2113 33.7612Z" fill="#091950"/>
    <path d="M36.1002 39.8238C36.1002 40.1575 35.8221 40.38 35.544 40.38C35.2103 40.38 34.9878 40.1019 34.9878 39.8238C34.9878 39.4901 35.2659 39.2676 35.544 39.2676C35.8221 39.2676 36.1002 39.4901 36.1002 39.8238Z" fill="#091950"/>
    <path d="M36.2113 10.1782C36.2113 10.5675 35.9332 10.8456 35.5439 10.8456C35.1546 10.8456 34.8765 10.5675 34.8765 10.1782C34.8765 9.78884 35.1546 9.51074 35.5439 9.51074C35.8776 9.51074 36.2113 9.78884 36.2113 10.1782Z" fill="#091950"/>
    <path d="M36.879 15.7406C36.879 16.4637 36.2672 17.0755 35.5441 17.0755C34.821 17.0755 34.2092 16.4637 34.2092 15.7406C34.2092 15.0176 34.821 14.4058 35.5441 14.4058C36.2672 14.4058 36.879 15.0176 36.879 15.7406Z" fill="#091950"/>
    <path d="M36.6564 21.7472C36.6564 22.359 36.1559 22.8596 35.544 22.8596C34.9322 22.8596 34.4316 22.359 34.4316 21.7472C34.4316 21.1353 34.9322 20.6348 35.544 20.6348C36.1559 20.6348 36.6564 21.1353 36.6564 21.7472Z" fill="#091950"/>
    <path d="M12.128 41.4366C12.128 41.7703 11.8499 41.9928 11.5718 41.9928C11.2381 41.9928 11.0156 41.7147 11.0156 41.4366C11.0156 41.1029 11.2937 40.8804 11.5718 40.8804C11.9055 40.8804 12.128 41.1029 12.128 41.4366Z" fill="#091950"/>
    <path d="M12.6843 23.1378C12.6843 23.7496 12.1837 24.2502 11.5719 24.2502C10.9601 24.2502 10.4595 23.7496 10.4595 23.1378C10.4595 22.526 10.9601 22.0254 11.5719 22.0254C12.1837 22.0254 12.6843 22.526 12.6843 23.1378Z" fill="#091950"/>
    <path d="M12.2392 35.1518C12.2392 35.5412 11.9611 35.8193 11.5717 35.8193C11.1824 35.8193 10.9043 35.5412 10.9043 35.1518C10.9043 34.7625 11.1824 34.4844 11.5717 34.4844C11.9611 34.4844 12.2392 34.8181 12.2392 35.1518Z" fill="#091950"/>
    <path d="M12.128 6.00688C12.128 6.3406 11.8499 6.56308 11.5718 6.56308C11.2381 6.56308 11.0156 6.3406 11.0156 6.00688C11.0156 5.67316 11.2937 5.45068 11.5718 5.45068C11.9055 5.45068 12.128 5.67316 12.128 6.00688Z" fill="#091950"/>
    <path d="M12.2392 11.5688C12.2392 11.9581 11.9611 12.2362 11.5717 12.2362C11.1824 12.2362 10.9043 11.9581 10.9043 11.5688C10.9043 11.1795 11.1824 10.9014 11.5717 10.9014C11.9611 10.9014 12.2392 11.1795 12.2392 11.5688Z" fill="#091950"/>
    <path d="M12.9066 17.1308C12.9066 17.8538 12.2948 18.4657 11.5717 18.4657C10.8486 18.4657 10.2368 17.8538 10.2368 17.1308C10.2368 16.4077 10.8486 15.7959 11.5717 15.7959C12.2948 15.7959 12.9066 16.4077 12.9066 17.1308Z" fill="#091950"/>
    <path d="M12.5731 26.1418C12.5731 26.698 12.1282 27.1429 11.572 27.1429C11.0158 27.1429 10.5708 26.698 10.5708 26.1418C10.5708 25.5856 11.0158 25.1406 11.572 25.1406C12.1282 25.1406 12.5731 25.5856 12.5731 26.1418Z" fill="#091950"/>
    <path d="M12.5731 29.1447C12.5731 29.7009 12.1282 30.1459 11.572 30.1459C11.0158 30.1459 10.5708 29.7009 10.5708 29.1447C10.5708 28.5885 11.0158 28.1436 11.572 28.1436C12.1282 28.1436 12.5731 28.5885 12.5731 29.1447Z" fill="#091950"/>
    <path d="M12.2392 32.1484C12.2392 32.5377 11.9611 32.8158 11.5717 32.8158C11.1824 32.8158 10.9043 32.5377 10.9043 32.1484C10.9043 31.7591 11.1824 31.481 11.5717 31.481C11.9611 31.481 12.2392 31.8147 12.2392 32.1484Z" fill="#091950"/>
    <path d="M12.2392 38.2106C12.2392 38.6 11.9611 38.8781 11.5717 38.8781C11.1824 38.8781 10.9043 38.6 10.9043 38.2106C10.9043 37.8213 11.1824 37.5432 11.5717 37.5432C11.9611 37.4876 12.2392 37.8213 12.2392 38.2106Z" fill="#091950"/>
    <path d="M12.2392 8.78756C12.2392 9.1769 11.9611 9.455 11.5717 9.455C11.1824 9.455 10.9043 9.1769 10.9043 8.78756C10.9043 8.39822 11.1824 8.12012 11.5717 8.12012C11.9611 8.12012 12.2392 8.39822 12.2392 8.78756Z" fill="#091950"/>
    <path d="M12.2392 14.3501C12.2392 14.7394 11.9611 15.0175 11.5717 15.0175C11.1824 15.0175 10.9043 14.7394 10.9043 14.3501C10.9043 13.9607 11.1824 13.6826 11.5717 13.6826C11.9611 13.6826 12.2392 13.9607 12.2392 14.3501Z" fill="#091950"/>
    <path d="M12.7954 20.1343C12.7954 20.8017 12.2392 21.3579 11.5718 21.3579C10.9043 21.3579 10.3481 20.8017 10.3481 20.1343C10.3481 19.4668 10.9043 18.9106 11.5718 18.9106C12.2392 18.9106 12.7954 19.4668 12.7954 20.1343Z" fill="#091950"/>
    <path d="M9.9032 24.7512C9.9032 25.3074 9.45824 25.7523 8.90204 25.7523C8.34584 25.7523 7.90088 25.3074 7.90088 24.7512C7.90088 24.195 8.34584 23.75 8.90204 23.75C9.45824 23.75 9.9032 24.195 9.9032 24.7512Z" fill="#091950"/>
    <path d="M9.5695 30.7578C9.5695 31.1471 9.2914 31.4252 8.90206 31.4252C8.51272 31.4252 8.23462 31.1471 8.23462 30.7578C8.23462 30.3684 8.51272 30.0903 8.90206 30.0903C9.2914 30.0903 9.5695 30.4241 9.5695 30.7578Z" fill="#091950"/>
    <path d="M9.5695 36.8205C9.5695 37.2098 9.2914 37.4879 8.90206 37.4879C8.51272 37.4879 8.23462 37.2098 8.23462 36.8205C8.23462 36.4312 8.51272 36.1531 8.90206 36.1531C9.2914 36.0974 9.5695 36.4312 9.5695 36.8205Z" fill="#091950"/>
    <path d="M9.45835 7.39751C9.45835 7.73123 9.18025 7.95371 8.90215 7.95371C8.56843 7.95371 8.34595 7.67561 8.34595 7.39751C8.34595 7.06379 8.62405 6.84131 8.90215 6.84131C9.23587 6.84131 9.45835 7.06379 9.45835 7.39751Z" fill="#091950"/>
    <path d="M9.5695 12.9594C9.5695 13.3488 9.2914 13.6269 8.90206 13.6269C8.51272 13.6269 8.23462 13.3488 8.23462 12.9594C8.23462 12.5701 8.51272 12.292 8.90206 12.292C9.2914 12.292 9.5695 12.5701 9.5695 12.9594Z" fill="#091950"/>
    <path d="M10.1257 18.7441C10.1257 19.4116 9.56954 19.9678 8.90211 19.9678C8.23467 19.9678 7.67847 19.4116 7.67847 18.7441C7.67847 18.0767 8.23467 17.5205 8.90211 17.5205C9.56954 17.5205 10.1257 18.0767 10.1257 18.7441Z" fill="#091950"/>
    <path d="M9.5695 27.7544C9.5695 28.1437 9.2914 28.4218 8.90206 28.4218C8.51272 28.4218 8.23462 28.1437 8.23462 27.7544C8.23462 27.365 8.51272 27.0869 8.90206 27.0869C9.2914 27.0869 9.5695 27.4206 9.5695 27.7544Z" fill="#091950"/>
    <path d="M9.5695 33.7612C9.5695 34.1505 9.2914 34.4286 8.90206 34.4286C8.51272 34.4286 8.23462 34.1505 8.23462 33.7612C8.23462 33.3719 8.51272 33.0938 8.90206 33.0938C9.2914 33.0938 9.5695 33.4275 9.5695 33.7612Z" fill="#091950"/>
    <path d="M9.45835 39.8238C9.45835 40.1575 9.18025 40.38 8.90215 40.38C8.56843 40.38 8.34595 40.1019 8.34595 39.8238C8.34595 39.4901 8.62405 39.2676 8.90215 39.2676C9.23587 39.2676 9.45835 39.4901 9.45835 39.8238Z" fill="#091950"/>
    <path d="M9.5695 10.1782C9.5695 10.5675 9.2914 10.8456 8.90206 10.8456C8.51272 10.8456 8.23462 10.5675 8.23462 10.1782C8.23462 9.78884 8.51272 9.51074 8.90206 9.51074C9.2914 9.51074 9.5695 9.78884 9.5695 10.1782Z" fill="#091950"/>
    <path d="M10.2369 15.7406C10.2369 16.4637 9.62508 17.0755 8.90202 17.0755C8.17896 17.0755 7.56714 16.4637 7.56714 15.7406C7.56714 15.0176 8.17896 14.4058 8.90202 14.4058C9.6807 14.4058 10.2369 15.0176 10.2369 15.7406Z" fill="#091950"/>
    <path d="M10.0143 21.7472C10.0143 22.359 9.51377 22.8596 8.90195 22.8596C8.29013 22.8596 7.78955 22.359 7.78955 21.7472C7.78955 21.1353 8.29013 20.6348 8.90195 20.6348C9.51377 20.6348 10.0143 21.1353 10.0143 21.7472Z" fill="#091950"/>
    <path d="M41.4955 24.9731C41.4955 25.3624 41.2174 25.6405 40.8281 25.6405C40.4387 25.6405 40.1606 25.3624 40.1606 24.9731C40.1606 24.5838 40.4387 24.3057 40.8281 24.3057C41.2174 24.3057 41.4955 24.6394 41.4955 24.9731Z" fill="#091950"/>
    <path d="M41.4955 30.9799C41.4955 31.3693 41.2174 31.6474 40.8281 31.6474C40.4387 31.6474 40.1606 31.3693 40.1606 30.9799C40.1606 30.5906 40.4387 30.3125 40.8281 30.3125C41.2174 30.3125 41.4955 30.6462 41.4955 30.9799Z" fill="#091950"/>
    <path d="M41.3841 37.0428C41.3841 37.3765 41.106 37.599 40.8279 37.599C40.4942 37.599 40.2717 37.3209 40.2717 37.0428C40.2717 36.7091 40.5498 36.4866 40.8279 36.4866C41.1616 36.431 41.3841 36.7091 41.3841 37.0428Z" fill="#091950"/>
    <path d="M42.2183 12.9594C42.2183 13.6824 41.6065 14.2943 40.8835 14.2943C40.1604 14.2943 39.5486 13.6824 39.5486 12.9594C39.5486 12.2363 40.1604 11.6245 40.8835 11.6245C41.6065 11.6245 42.2183 12.2363 42.2183 12.9594Z" fill="#091950"/>
    <path d="M41.4953 18.9663C41.4953 19.3556 41.2172 19.6337 40.8278 19.6337C40.4385 19.6337 40.1604 19.3556 40.1604 18.9663C40.1604 18.5769 40.4385 18.2988 40.8278 18.2988C41.2172 18.2988 41.4953 18.5769 41.4953 18.9663Z" fill="#091950"/>
    <path d="M41.4955 27.977C41.4955 28.3664 41.2174 28.6445 40.8281 28.6445C40.4387 28.6445 40.1606 28.3664 40.1606 27.977C40.1606 27.5877 40.4387 27.3096 40.8281 27.3096C41.2174 27.3096 41.4955 27.6433 41.4955 27.977Z" fill="#091950"/>
    <path d="M41.4953 33.9838C41.4953 34.3732 41.2172 34.6513 40.8278 34.6513C40.4385 34.6513 40.1604 34.3732 40.1604 33.9838C40.1604 33.5945 40.4385 33.3164 40.8278 33.3164C41.2172 33.3164 41.4953 33.6501 41.4953 33.9838Z" fill="#091950"/>
    <path d="M41.3841 10.1783C41.3841 10.512 41.106 10.7345 40.8279 10.7345C40.4942 10.7345 40.2717 10.4564 40.2717 10.1783C40.2717 9.84455 40.5498 9.62207 40.8279 9.62207C41.1616 9.62207 41.3841 9.84455 41.3841 10.1783Z" fill="#091950"/>
    <path d="M41.4955 21.9702C41.4955 22.3595 41.2174 22.6376 40.8281 22.6376C40.4387 22.6376 40.1606 22.3595 40.1606 21.9702C40.1606 21.5808 40.4387 21.3027 40.8281 21.3027C41.2174 21.3027 41.4955 21.5808 41.4955 21.9702Z" fill="#091950"/>
    <path d="M38.8813 23.249C38.8813 23.6383 38.6032 23.9164 38.2138 23.9164C37.8245 23.9164 37.5464 23.6383 37.5464 23.249C37.5464 22.8596 37.8245 22.5815 38.2138 22.5815C38.5475 22.5815 38.8813 22.8596 38.8813 23.249Z" fill="#091950"/>
    <path d="M38.8813 29.2563C38.8813 29.6456 38.6032 29.9237 38.2138 29.9237C37.8245 29.9237 37.5464 29.6456 37.5464 29.2563C37.5464 28.867 37.8245 28.5889 38.2138 28.5889C38.5475 28.5889 38.8813 28.9226 38.8813 29.2563Z" fill="#091950"/>
    <path d="M38.8813 35.2631C38.8813 35.6525 38.6032 35.9306 38.2138 35.9306C37.8245 35.9306 37.5464 35.6525 37.5464 35.2631C37.5464 34.8738 37.8245 34.5957 38.2138 34.5957C38.5475 34.5957 38.8813 34.9294 38.8813 35.2631Z" fill="#091950"/>
    <path d="M38.8813 11.458C38.8813 11.8473 38.6032 12.1254 38.2138 12.1254C37.8245 12.1254 37.5464 11.8473 37.5464 11.458C37.5464 11.0686 37.8245 10.7905 38.2138 10.7905C38.5475 10.7905 38.8813 11.0686 38.8813 11.458Z" fill="#091950"/>
    <path d="M39.4375 17.2422C39.4375 17.9096 38.8813 18.4658 38.2139 18.4658C37.5464 18.4658 36.9902 17.9096 36.9902 17.2422C36.9902 16.5748 37.5464 16.0186 38.2139 16.0186C38.8813 16.0186 39.4375 16.5748 39.4375 17.2422Z" fill="#091950"/>
    <path d="M38.8813 26.2529C38.8813 26.6422 38.6032 26.9203 38.2138 26.9203C37.8245 26.9203 37.5464 26.6422 37.5464 26.2529C37.5464 25.8635 37.8245 25.5854 38.2138 25.5854C38.5475 25.5854 38.8813 25.8635 38.8813 26.2529Z" fill="#091950"/>
    <path d="M38.8813 32.2597C38.8813 32.6491 38.6032 32.9272 38.2138 32.9272C37.8245 32.9272 37.5464 32.6491 37.5464 32.2597C37.5464 31.8704 37.8245 31.5923 38.2138 31.5923C38.5475 31.5923 38.8813 31.926 38.8813 32.2597Z" fill="#091950"/>
    <path d="M38.7701 8.67632C38.7701 9.01004 38.492 9.23252 38.2139 9.23252C37.8802 9.23252 37.6577 8.95442 37.6577 8.67632C37.6577 8.3426 37.9358 8.12012 38.2139 8.12012C38.492 8.12012 38.7701 8.3426 38.7701 8.67632Z" fill="#091950"/>
    <path d="M39.5487 14.2387C39.5487 14.9617 38.9368 15.5736 38.2138 15.5736C37.4907 15.5736 36.8789 14.9617 36.8789 14.2387C36.8789 13.5156 37.4907 12.9038 38.2138 12.9038C38.9368 12.9038 39.5487 13.46 39.5487 14.2387Z" fill="#091950"/>
    <path d="M39.3261 20.2457C39.3261 20.8575 38.8255 21.3581 38.2137 21.3581C37.6019 21.3581 37.1013 20.8575 37.1013 20.2457C37.1013 19.6339 37.6019 19.1333 38.2137 19.1333C38.8255 19.1333 39.3261 19.6339 39.3261 20.2457Z" fill="#091950"/>
    <path d="M4.73066 15.963C4.73066 16.5748 4.23008 17.0754 3.61826 17.0754C3.00644 17.0754 2.50586 16.5748 2.50586 15.963C2.50586 15.3512 3.00644 14.8506 3.61826 14.8506C4.23008 14.8506 4.73066 15.3512 4.73066 15.963Z" fill="#091950"/>
    <path d="M41.9958 15.963C41.9958 16.5748 41.4952 17.0754 40.8834 17.0754C40.2716 17.0754 39.771 16.5748 39.771 15.963C39.771 15.3512 40.2716 14.8506 40.8834 14.8506C41.4952 14.8506 41.9958 15.3512 41.9958 15.963Z" fill="#091950"/>
    <path d="M23.3632 46.8878C23.3632 47.4996 22.8626 48.0002 22.2508 48.0002C21.639 48.0002 21.1384 47.4996 21.1384 46.8878C21.1384 46.276 21.639 45.7754 22.2508 45.7754C22.8626 45.7754 23.3632 46.276 23.3632 46.8878Z" fill="#091950"/>
    <path d="M25.9772 42.4376C25.9772 43.0494 25.4767 43.55 24.8648 43.55C24.253 43.55 23.7524 43.0494 23.7524 42.4376C23.7524 41.8258 24.253 41.3252 24.8648 41.3252C25.4767 41.3252 25.9772 41.8258 25.9772 42.4376Z" fill="#091950"/>
    <path d="M20.6935 42.4376C20.6935 43.0494 20.193 43.55 19.5811 43.55C18.9693 43.55 18.4688 43.0494 18.4688 42.4376C18.4688 41.8258 18.9693 41.3252 19.5811 41.3252C20.193 41.3252 20.6935 41.8258 20.6935 42.4376Z" fill="#091950"/>
    <path d="M4.28556 21.9702C4.28556 22.3595 4.00746 22.6376 3.61812 22.6376C3.22878 22.6376 2.95068 22.3595 2.95068 21.9702C2.95068 21.5808 3.22878 21.3027 3.61812 21.3027C3.95184 21.3027 4.28556 21.5808 4.28556 21.9702Z" fill="#091950"/>
    <path d="M4.28556 27.977C4.28556 28.3664 4.00746 28.6445 3.61812 28.6445C3.22878 28.6445 2.95068 28.3664 2.95068 27.977C2.95068 27.5877 3.22878 27.3096 3.61812 27.3096C3.95184 27.3096 4.28556 27.6433 4.28556 27.977Z" fill="#091950"/>
    <path d="M4.28556 33.9838C4.28556 34.3732 4.00746 34.6513 3.61812 34.6513C3.22878 34.6513 2.95068 34.3732 2.95068 33.9838C2.95068 33.5945 3.22878 33.3164 3.61812 33.3164C3.95184 33.3164 4.28556 33.6501 4.28556 33.9838Z" fill="#091950"/>
    <path d="M4.17441 10.1783C4.17441 10.512 3.89631 10.7345 3.61821 10.7345C3.28449 10.7345 3.06201 10.4564 3.06201 10.1783C3.06201 9.84455 3.34011 9.62207 3.61821 9.62207C3.89631 9.62207 4.17441 9.84455 4.17441 10.1783Z" fill="#091950"/>
    <path d="M4.28556 24.9731C4.28556 25.3624 4.00746 25.6405 3.61812 25.6405C3.22878 25.6405 2.95068 25.3624 2.95068 24.9731C2.95068 24.5838 3.22878 24.3057 3.61812 24.3057C3.95184 24.3057 4.28556 24.6394 4.28556 24.9731Z" fill="#091950"/>
    <path d="M4.28556 30.9799C4.28556 31.3693 4.00746 31.6474 3.61812 31.6474C3.22878 31.6474 2.95068 31.3693 2.95068 30.9799C2.95068 30.5906 3.22878 30.3125 3.61812 30.3125C3.95184 30.3125 4.28556 30.6462 4.28556 30.9799Z" fill="#091950"/>
    <path d="M4.17441 37.0428C4.17441 37.3765 3.89631 37.599 3.61821 37.599C3.28449 37.599 3.06201 37.3209 3.06201 37.0428C3.06201 36.7091 3.34011 36.4866 3.61821 36.4866C3.89631 36.431 4.17441 36.7091 4.17441 37.0428Z" fill="#091950"/>
    <path d="M4.95296 12.9594C4.95296 13.6824 4.34114 14.2943 3.61808 14.2943C2.89502 14.2943 2.2832 13.6824 2.2832 12.9594C2.2832 12.2363 2.89502 11.6245 3.61808 11.6245C4.34114 11.6245 4.95296 12.2363 4.95296 12.9594Z" fill="#091950"/>
    <path d="M4.28556 18.9663C4.28556 19.3556 4.00746 19.6337 3.61812 19.6337C3.22878 19.6337 2.95068 19.3556 2.95068 18.9663C2.95068 18.5769 3.22878 18.2988 3.61812 18.2988C3.95184 18.2988 4.28556 18.5769 4.28556 18.9663Z" fill="#091950"/>
    <path d="M43.8871 26.6416C43.8871 26.9754 43.609 27.1978 43.3309 27.1978C43.0528 27.1978 42.7747 26.9197 42.7747 26.6416C42.7747 26.3079 43.0528 26.0854 43.3309 26.0854C43.609 26.0854 43.8871 26.3635 43.8871 26.6416Z" fill="#091950"/>
    <path d="M43.8871 32.7046C43.8871 33.0384 43.609 33.2608 43.3309 33.2608C43.0528 33.2608 42.7747 32.9827 42.7747 32.7046C42.7747 32.3709 43.0528 32.1484 43.3309 32.1484C43.609 32.1484 43.8871 32.3709 43.8871 32.7046Z" fill="#091950"/>
    <path d="M43.8871 14.6285C43.8871 14.9622 43.609 15.1847 43.3309 15.1847C43.0528 15.1847 42.7747 14.9066 42.7747 14.6285C42.7747 14.2947 43.0528 14.0723 43.3309 14.0723C43.609 14.0723 43.8871 14.3504 43.8871 14.6285Z" fill="#091950"/>
    <path d="M43.8871 20.6348C43.8871 20.9685 43.609 21.191 43.3309 21.191C43.0528 21.191 42.7747 20.9129 42.7747 20.6348C42.7747 20.3011 43.0528 20.0786 43.3309 20.0786C43.609 20.0786 43.8871 20.3567 43.8871 20.6348Z" fill="#091950"/>
    <path d="M43.8871 29.7012C43.8871 30.0349 43.609 30.2574 43.3309 30.2574C43.0528 30.2574 42.7747 29.9793 42.7747 29.7012C42.7747 29.3675 43.0528 29.145 43.3309 29.145C43.609 29.145 43.8871 29.3675 43.8871 29.7012Z" fill="#091950"/>
    <path d="M43.8871 35.7081C43.8871 36.0418 43.609 36.2643 43.3309 36.2643C43.0528 36.2643 42.7747 35.9862 42.7747 35.7081C42.7747 35.3743 43.0528 35.1519 43.3309 35.1519C43.609 35.1519 43.8871 35.3743 43.8871 35.7081Z" fill="#091950"/>
    <path d="M43.8871 17.6314C43.8871 17.9651 43.609 18.1876 43.3309 18.1876C43.0528 18.1876 42.7747 17.9095 42.7747 17.6314C42.7747 17.2977 43.0528 17.0752 43.3309 17.0752C43.609 17.0752 43.8871 17.3533 43.8871 17.6314Z" fill="#091950"/>
    <path d="M43.8871 23.6382C43.8871 23.972 43.609 24.1944 43.3309 24.1944C43.0528 24.1944 42.7747 23.972 42.7747 23.6382C42.7747 23.3045 43.0528 23.082 43.3309 23.082C43.609 23.082 43.8871 23.3601 43.8871 23.6382Z" fill="#091950"/>
    <path d="M1.67148 26.6416C1.67148 26.9754 1.39338 27.1978 1.11528 27.1978C0.781562 27.1978 0.559082 26.9197 0.559082 26.6416C0.559082 26.3079 0.837182 26.0854 1.11528 26.0854C1.449 26.0854 1.67148 26.3635 1.67148 26.6416Z" fill="#091950"/>
    <path d="M1.67148 32.7046C1.67148 33.0384 1.39338 33.2608 1.11528 33.2608C0.781562 33.2608 0.559082 32.9827 0.559082 32.7046C0.559082 32.3709 0.837182 32.1484 1.11528 32.1484C1.449 32.1484 1.67148 32.3709 1.67148 32.7046Z" fill="#091950"/>
    <path d="M1.67148 14.6285C1.67148 14.9622 1.39338 15.1847 1.11528 15.1847C0.781562 15.1847 0.559082 14.9066 0.559082 14.6285C0.559082 14.2947 0.837182 14.0723 1.11528 14.0723C1.449 14.0723 1.67148 14.3504 1.67148 14.6285Z" fill="#091950"/>
    <path d="M1.67148 20.6348C1.67148 20.9685 1.39338 21.191 1.11528 21.191C0.781562 21.191 0.559082 20.9129 0.559082 20.6348C0.559082 20.3011 0.837182 20.0786 1.11528 20.0786C1.449 20.0786 1.67148 20.3567 1.67148 20.6348Z" fill="#091950"/>
    <path d="M1.67148 29.701C1.67148 30.0347 1.39338 30.2572 1.11528 30.2572C0.781562 30.2572 0.559082 29.9791 0.559082 29.701C0.559082 29.3673 0.837182 29.1448 1.11528 29.1448C1.449 29.0892 1.67148 29.3673 1.67148 29.701Z" fill="#091950"/>
    <path d="M1.67148 35.7081C1.67148 36.0418 1.39338 36.2643 1.11528 36.2643C0.781562 36.2643 0.559082 35.9862 0.559082 35.7081C0.559082 35.3743 0.837182 35.1519 1.11528 35.1519C1.449 35.1519 1.67148 35.3743 1.67148 35.7081Z" fill="#091950"/>
    <path d="M1.67148 17.6314C1.67148 17.9651 1.39338 18.1876 1.11528 18.1876C0.781562 18.1876 0.559082 17.9095 0.559082 17.6314C0.559082 17.2977 0.837182 17.0752 1.11528 17.0752C1.449 17.0752 1.67148 17.3533 1.67148 17.6314Z" fill="#091950"/>
    <path d="M1.67148 23.6382C1.67148 23.972 1.39338 24.1944 1.11528 24.1944C0.781562 24.1944 0.559082 23.972 0.559082 23.6382C0.559082 23.3045 0.837182 23.082 1.11528 23.082C1.449 23.082 1.67148 23.3601 1.67148 23.6382Z" fill="#091950"/>
    <path d="M7.0109 23.249C7.0109 23.6383 6.7328 23.9164 6.34346 23.9164C5.95412 23.9164 5.67603 23.6383 5.67603 23.249C5.67603 22.8596 5.95412 22.5815 6.34346 22.5815C6.7328 22.5815 7.0109 22.8596 7.0109 23.249Z" fill="#091950"/>
    <path d="M7.0109 29.2563C7.0109 29.6456 6.7328 29.9237 6.34346 29.9237C5.95412 29.9237 5.67603 29.6456 5.67603 29.2563C5.67603 28.867 5.95412 28.5889 6.34346 28.5889C6.7328 28.5889 7.0109 28.9226 7.0109 29.2563Z" fill="#091950"/>
    <path d="M7.0109 35.2631C7.0109 35.6525 6.7328 35.9306 6.34346 35.9306C5.95412 35.9306 5.67603 35.6525 5.67603 35.2631C5.67603 34.8738 5.95412 34.5957 6.34346 34.5957C6.7328 34.5957 7.0109 34.9294 7.0109 35.2631Z" fill="#091950"/>
    <path d="M7.0109 11.458C7.0109 11.8473 6.7328 12.1254 6.34346 12.1254C5.95412 12.1254 5.67603 11.8473 5.67603 11.458C5.67603 11.0686 5.95412 10.7905 6.34346 10.7905C6.7328 10.7905 7.0109 11.0686 7.0109 11.458Z" fill="#091950"/>
    <path d="M7.56715 17.2422C7.56715 17.9096 7.01095 18.4658 6.34351 18.4658C5.67607 18.4658 5.11987 17.9096 5.11987 17.2422C5.11987 16.5748 5.67607 16.0186 6.34351 16.0186C7.01095 16.0186 7.56715 16.5748 7.56715 17.2422Z" fill="#091950"/>
    <path d="M7.0109 26.2529C7.0109 26.6422 6.7328 26.9203 6.34346 26.9203C5.95412 26.9203 5.67603 26.6422 5.67603 26.2529C5.67603 25.8635 5.95412 25.5854 6.34346 25.5854C6.7328 25.5854 7.0109 25.8635 7.0109 26.2529Z" fill="#091950"/>
    <path d="M7.0109 32.2597C7.0109 32.6491 6.7328 32.9272 6.34346 32.9272C5.95412 32.9272 5.67603 32.6491 5.67603 32.2597C5.67603 31.8704 5.95412 31.5923 6.34346 31.5923C6.7328 31.5923 7.0109 31.926 7.0109 32.2597Z" fill="#091950"/>
    <path d="M6.89975 38.2662C6.89975 38.5999 6.62165 38.8224 6.34355 38.8224C6.00983 38.8224 5.78735 38.5443 5.78735 38.2662C5.78735 37.9324 6.06545 37.71 6.34355 37.71C6.62165 37.71 6.89975 37.9881 6.89975 38.2662Z" fill="#091950"/>
    <path d="M6.89975 8.67632C6.89975 9.01004 6.62165 9.23252 6.34355 9.23252C6.00983 9.23252 5.78735 8.95442 5.78735 8.67632C5.78735 8.3426 6.06545 8.12012 6.34355 8.12012C6.62165 8.12012 6.89975 8.3426 6.89975 8.67632Z" fill="#091950"/>
    <path d="M7.67855 14.2387C7.67855 14.9617 7.06673 15.5736 6.34367 15.5736C5.62061 15.5736 5.00879 14.9617 5.00879 14.2387C5.00879 13.5156 5.62061 12.9038 6.34367 12.9038C7.06673 12.9038 7.67855 13.46 7.67855 14.2387Z" fill="#091950"/>
    <path d="M7.456 20.2457C7.456 20.8575 6.95542 21.3581 6.3436 21.3581C5.73178 21.3581 5.2312 20.8575 5.2312 20.2457C5.2312 19.6339 5.73178 19.1333 6.3436 19.1333C6.95542 19.1333 7.456 19.6339 7.456 20.2457Z" fill="#091950"/>
    <path d="M79.5393 36.0419V19.1891C79.5393 18.911 79.7618 18.6885 80.0399 18.6885H83.5996C83.8777 18.6885 84.1001 18.911 84.1001 19.1891V36.0419C84.1001 36.32 83.8777 36.5425 83.5996 36.5425H80.0399C79.7618 36.5425 79.5393 36.32 79.5393 36.0419Z" fill="#7C0016"/>
    <path d="M98.7283 36.5425C98.5614 36.5425 98.3945 36.4312 98.2833 36.32L91.6089 25.6966H91.5533L91.6645 36.0419C91.6645 36.32 91.442 36.5425 91.1639 36.5425H87.8267C87.5486 36.5425 87.3262 36.32 87.3262 36.0419V19.1891C87.3262 18.911 87.5486 18.6885 87.8267 18.6885H90.9971C91.164 18.6885 91.3308 18.7997 91.442 18.911L98.2277 29.9237L98.2833 29.8681L98.1164 19.1891C98.1164 18.911 98.3389 18.6885 98.617 18.6885H101.954C102.232 18.6885 102.455 18.911 102.455 19.1891V36.0419C102.455 36.32 102.232 36.5425 101.954 36.5425H98.7283Z" fill="#7C0016"/>
    <path d="M117.917 35.0407C117.083 35.7638 116.193 36.2088 115.192 36.3756C114.802 36.4869 114.302 36.5425 113.746 36.5425C113.523 36.5425 113.245 36.5425 112.967 36.5425H106.96C106.682 36.5425 106.459 36.32 106.459 36.0419V19.1891C106.459 18.911 106.682 18.6885 106.96 18.6885H111.966C112.633 18.6885 113.189 18.6885 113.523 18.7441C114.079 18.7997 114.58 18.8553 115.025 18.9666C116.082 19.1891 116.972 19.6896 117.639 20.4683C118.362 21.247 118.696 22.2482 118.696 23.4162C118.696 24.751 118.251 25.7522 117.305 26.5309C117.027 26.7534 117.083 27.1983 117.361 27.3652C118.807 28.1439 119.53 29.3675 119.53 31.203C119.53 32.8159 119.03 34.0952 117.917 35.0407ZM113.801 22.9712C113.523 22.8044 113.078 22.6931 112.578 22.6931H111.298C111.02 22.6931 110.798 22.9156 110.798 23.1937V24.9735C110.798 25.2516 111.02 25.4741 111.298 25.4741H112.522C113.746 25.4741 114.358 24.9735 114.358 24.028C114.302 23.5274 114.135 23.1937 113.801 22.9712ZM114.524 29.59C114.191 29.4231 113.69 29.3119 113.078 29.3119H111.298C111.02 29.3119 110.798 29.5344 110.798 29.8125V32.0373C110.798 32.3154 111.02 32.5378 111.298 32.5378H113.078C113.746 32.5378 114.246 32.4266 114.58 32.2041C115.025 31.926 115.247 31.4811 115.247 30.8692C115.192 30.2574 114.969 29.8125 114.524 29.59Z" fill="#091950"/>
    <path d="M122.033 36.0419V19.1891C122.033 18.911 122.255 18.6885 122.534 18.6885H126.093C126.371 18.6885 126.594 18.911 126.594 19.1891V36.0419C126.594 36.32 126.371 36.5425 126.093 36.5425H122.534C122.255 36.5425 122.033 36.32 122.033 36.0419Z" fill="#091950"/>
    <path d="M148.063 27.3649C148.063 30.0903 147.173 32.3707 145.338 34.2062C143.502 36.0416 141.222 36.9315 138.497 36.9315C135.827 36.9315 133.602 36.0416 131.767 34.2062C129.931 32.3707 128.986 30.1459 128.986 27.5318C128.986 24.862 129.931 22.6928 131.822 20.913C133.658 19.1888 135.938 18.3545 138.552 18.3545C140.555 18.3545 142.39 18.9107 144.059 20.0787C145.616 21.1355 146.673 22.4147 147.285 23.9721C147.396 24.3058 147.173 24.6395 146.84 24.6395H142.724C142.557 24.6395 142.39 24.5283 142.279 24.4171C141.389 23.0266 140.165 22.3591 138.497 22.3591C137.05 22.3591 135.882 22.8597 134.937 23.9165C134.047 24.9176 133.602 26.1413 133.602 27.5874C133.602 29.0891 134.047 30.3684 134.937 31.3696C135.882 32.4263 137.05 32.9825 138.552 32.9825C139.609 32.9825 140.443 32.7601 141.222 32.2595C141.834 31.8701 142.279 31.4252 142.557 30.8134C142.724 30.4796 142.446 30.0903 142.112 30.0903H137.94C137.662 30.0903 137.44 29.8678 137.44 29.5897V26.9756C137.44 26.6975 137.662 26.475 137.94 26.475H148.063C148.063 26.6419 148.063 26.7531 148.063 26.92V27.3649Z" fill="#091950"/>
    <path d="M156.462 36.5425H150.733C150.455 36.5425 150.232 36.32 150.232 36.0419V19.1891C150.232 18.911 150.455 18.6885 150.733 18.6885H156.128C157.018 18.6885 157.797 18.7441 158.464 18.7997C159.243 18.911 159.91 19.0778 160.578 19.3003C161.968 19.8009 163.136 20.6908 164.082 22.0257C165.194 23.5274 165.75 25.4185 165.75 27.5877C165.639 33.5946 162.58 36.5425 156.462 36.5425ZM160.022 24.0836C159.243 23.1381 158.186 22.6931 156.684 22.6931H155.183C154.904 22.6931 154.682 22.9156 154.682 23.1937V32.0373C154.682 32.3154 154.904 32.5378 155.183 32.5378H156.629C158.13 32.5378 159.243 32.0929 159.966 31.1473C160.633 30.313 160.967 29.145 160.967 27.5877C161.078 26.1415 160.745 24.9735 160.022 24.0836Z" fill="#091950"/>
    <path d="M178.432 36.2083L177.764 34.3172C177.709 34.0948 177.486 33.9835 177.264 33.9835H171.868C171.646 33.9835 171.479 34.0948 171.423 34.3172L170.7 36.2639C170.645 36.4864 170.422 36.5976 170.255 36.5976H166.418C166.084 36.5976 165.806 36.2639 165.973 35.9302L172.758 19.0774C172.814 18.9105 173.036 18.7437 173.203 18.7437H176.096C176.318 18.7437 176.485 18.8549 176.541 19.0774L183.271 35.9302C183.382 36.2639 183.159 36.5976 182.826 36.5976H178.988C178.71 36.542 178.543 36.4308 178.432 36.2083ZM174.649 24.25H174.594L172.925 29.7008C172.814 30.0345 173.092 30.3682 173.426 30.3682H175.817C176.151 30.3682 176.374 30.0345 176.318 29.7008L174.649 24.25Z" fill="#091950"/>
    <path d="M190.223 23.1937V36.0419C190.223 36.32 190.001 36.5425 189.723 36.5425H186.163C185.885 36.5425 185.662 36.32 185.662 36.0419V23.1937C185.662 22.9156 185.44 22.6931 185.162 22.6931H182.659C182.381 22.6931 182.158 22.4706 182.158 22.1925V19.1891C182.158 18.911 182.381 18.6885 182.659 18.6885H193.227C193.505 18.6885 193.727 18.911 193.727 19.1891V22.1925C193.727 22.4706 193.505 22.6931 193.227 22.6931H190.724C190.446 22.6931 190.223 22.9156 190.223 23.1937Z" fill="#091950"/>
    <path d="M204.684 36.2083L204.017 34.3172C203.961 34.0948 203.739 33.9835 203.516 33.9835H198.01C197.787 33.9835 197.62 34.0948 197.565 34.3172L196.842 36.2639C196.786 36.4864 196.564 36.5976 196.397 36.5976H192.559C192.225 36.5976 191.947 36.2639 192.114 35.9302L198.9 19.0774C198.955 18.9105 199.178 18.7437 199.345 18.7437H202.237C202.459 18.7437 202.626 18.8549 202.682 19.0774L209.412 35.9302C209.523 36.2639 209.301 36.5976 208.967 36.5976H205.129C204.962 36.542 204.74 36.4308 204.684 36.2083ZM200.902 24.25H200.846L199.178 29.7008C199.067 30.0345 199.345 30.3682 199.678 30.3682H202.07C202.404 30.3682 202.626 30.0345 202.571 29.7008L200.902 24.25Z" fill="#091950"/>
    <path d="M77.537 11.2352C75.5903 11.5133 72.7537 12.2364 70.9739 15.6292L69.9727 17.9096L66.0793 26.6419C65.9681 26.8088 65.9125 27.0313 65.8569 27.2538C65.8012 27.4762 65.7456 27.6987 65.69 27.9212C65.6344 28.1437 65.5788 28.4218 65.5788 28.6443C65.5231 28.4218 65.5231 28.1437 65.4675 27.9212C65.4119 27.6987 65.3563 27.5319 65.3007 27.2538C65.245 27.0313 65.1894 26.8088 65.0782 26.6419L61.1848 17.9096L60.1836 15.6292C58.4038 12.2364 55.5672 11.5133 53.6205 11.2352C53.1199 11.1796 51.6182 11.0684 51.6182 11.0684L54.6773 17.9096L63.0202 36.4867H65.5788H68.1373L76.4803 17.9096L79.5394 11.0684C79.5394 11.0684 78.0376 11.1796 77.537 11.2352Z" fill="#7C0016"/>
</svg>
